<svg width="5383" height="1330" viewBox="0 0 5383 1330" fill="none" xmlns="http://www.w3.org/2000/svg">
<path d="M1040.9 851.774V467.188L707.838 274.896L374.777 467.188V851.774L707.838 1044.07L1040.9 851.774Z" stroke="#FAF7F2" stroke-width="70"/>
<path d="M411.836 257.055L619.682 377.055V617.055L411.836 737.055L203.99 617.055V377.055L411.836 257.055Z" fill="#0C1F2C" fill-opacity="0.6" stroke="#C89545" stroke-width="70"/>
<path d="M1274.52 622.083V320.949H1329.31L1488.43 532.663V320.949H1542.78V622.083H1488.43L1329.31 410.368V622.083H1274.52ZM1760.83 395.465H1814.31V622.083H1760.83V591.838C1746.81 612.878 1720.51 627.343 1690.7 627.343C1641.17 627.343 1606.54 590.961 1606.54 539.676V395.465H1658.26V529.157C1658.26 559.84 1677.99 581.756 1706.04 581.756C1734.09 581.756 1757.33 562.908 1760.83 538.8V395.465ZM1878.94 622.083V320.949H1933.73L2032.79 504.61L2132.3 320.949H2186.65V622.083H2132.3V420.888L2032.79 604.55L1933.73 420.888V622.083H1878.94ZM2357.28 580.003C2378.32 580.003 2403.31 570.36 2416.02 557.21L2449.77 592.276C2430.05 613.316 2390.6 627.343 2357.72 627.343C2292.85 627.343 2239.37 577.811 2239.37 508.117C2239.37 440.175 2290.22 390.205 2354.65 390.205C2424.79 390.205 2465.55 443.243 2465.55 526.965H2294.6C2301.18 558.086 2324.85 580.003 2357.28 580.003ZM2356.84 437.545C2327.04 437.545 2302.93 456.393 2295.04 486.2H2414.27C2408.13 457.708 2388.84 437.545 2356.84 437.545ZM2624.99 573.428L2640.34 609.371C2627.62 620.33 2609.21 627.343 2592.12 627.343C2554.42 627.343 2528.12 600.166 2528.12 562.031V439.737H2495.25V395.465H2528.12V333.222H2580.28V395.465H2631.57V439.737H2580.28V555.456C2580.28 570.798 2589.93 581.756 2602.64 581.756C2611.84 581.756 2620.17 578.25 2624.99 573.428ZM2736.64 439.298C2751.1 409.053 2780.47 390.205 2817.73 390.205V435.792C2769.07 435.792 2736.64 464.722 2736.64 507.678V622.083H2683.16V395.465H2736.64V439.298ZM2884.53 361.275C2867.43 361.275 2853.84 346.81 2853.84 330.592C2853.84 314.374 2867.43 300.347 2884.53 300.347C2901.18 300.347 2914.77 314.374 2914.77 330.592C2914.77 346.81 2901.18 361.275 2884.53 361.275ZM2857.35 622.083V395.465H2910.83V622.083H2857.35ZM3183.83 395.465L3090.47 496.72L3180.77 622.083H3118.52L3054.53 531.787L3022.53 565.538V622.083H2969.05V315.689H3022.53V502.857L3120.71 395.465H3183.83ZM3453.29 626.905C3401.57 626.905 3357.73 609.371 3324.42 578.25L3355.98 539.238C3383.59 564.223 3415.59 580.003 3455.04 580.003C3492.3 580.003 3511.59 561.593 3511.59 540.115C3511.59 515.13 3490.11 506.802 3441.89 495.405C3379.65 480.94 3336.25 462.968 3336.25 406.423C3336.25 353.823 3380.96 315.25 3444.52 315.25C3492.3 315.25 3528.24 331.469 3558.49 357.33L3528.68 397.657C3502.38 374.863 3472.14 362.152 3442.33 362.152C3412.09 362.152 3391.48 380.562 3391.48 401.602C3391.48 426.148 3413.84 434.915 3461.62 445.873C3524.3 459.9 3566.38 480.063 3566.38 534.855C3566.38 588.77 3525.18 626.905 3453.29 626.905ZM3660.61 700.983C3643.52 700.983 3624.67 696.6 3611.08 689.148L3622.48 650.575C3632.12 655.835 3643.08 658.903 3651.41 658.903C3664.12 658.903 3673.76 654.958 3680.34 644L3689.98 623.836L3593.98 395.465H3650.53L3716.72 564.661L3778.96 395.465H3834.19L3738.2 637.863C3721.1 680.82 3694.8 700.545 3660.61 700.983ZM3960.71 627.343C3926.08 627.343 3888.82 615.07 3861.64 593.153L3885.75 555.895C3907.67 571.675 3933.09 582.195 3961.58 582.195C3983.06 582.195 3997.97 572.99 3997.97 558.963C3997.97 541.43 3978.24 535.731 3952.38 528.718C3903.29 516.007 3872.16 501.98 3871.73 461.653C3871.73 419.135 3906.79 390.205 3957.2 390.205C3988.32 390.205 4019.44 401.163 4043.99 417.382L4021.64 456.393C4000.16 442.805 3976.93 435.792 3957.2 435.792C3938.35 435.792 3923.89 443.243 3923.89 455.955C3923.89 470.42 3935.72 474.803 3970.35 484.885C4008.49 495.405 4049.69 508.555 4049.69 555.895C4049.69 599.29 4013.75 627.343 3960.71 627.343ZM4209.24 573.428L4224.58 609.371C4211.87 620.33 4193.46 627.343 4176.37 627.343C4138.67 627.343 4112.37 600.166 4112.37 562.031V439.737H4079.5V395.465H4112.37V333.222H4164.53V395.465H4215.82V439.737H4164.53V555.456C4164.53 570.798 4174.17 581.756 4186.89 581.756C4196.09 581.756 4204.42 578.25 4209.24 573.428ZM4371.73 580.003C4392.77 580.003 4417.75 570.36 4430.47 557.21L4464.22 592.276C4444.49 613.316 4405.04 627.343 4372.17 627.343C4307.29 627.343 4253.82 577.811 4253.82 508.117C4253.82 440.175 4304.66 390.205 4369.1 390.205C4439.23 390.205 4480 443.243 4480 526.965H4309.05C4315.62 558.086 4339.29 580.003 4371.73 580.003ZM4371.29 437.545C4341.48 437.545 4317.38 456.393 4309.49 486.2H4428.71C4422.58 457.708 4403.29 437.545 4371.29 437.545ZM4788.04 390.205C4835.38 390.205 4870.88 426.587 4870.88 477.872V622.083H4818.72V486.638C4818.72 456.832 4800.75 435.792 4774.89 435.792C4745.52 435.792 4725.35 455.517 4725.35 483.132V622.083H4673.19V486.638C4673.19 456.832 4655.22 435.792 4628.92 435.792C4599.99 435.792 4579.39 455.517 4579.39 483.132V622.083H4525.91V395.465H4579.39V426.148C4590.79 404.232 4614.02 390.205 4642.51 390.205C4674.51 390.205 4700.81 406.423 4714.83 433.162C4725.79 406.862 4754.28 390.205 4788.04 390.205ZM5012.45 627.343C4977.82 627.343 4940.56 615.07 4913.39 593.153L4937.49 555.895C4959.41 571.675 4984.83 582.195 5013.32 582.195C5034.8 582.195 5049.71 572.99 5049.71 558.963C5049.71 541.43 5029.98 535.731 5004.12 528.718C4955.03 516.007 4923.91 501.98 4923.47 461.653C4923.47 419.135 4958.53 390.205 5008.94 390.205C5040.06 390.205 5071.18 401.163 5095.73 417.382L5073.38 456.393C5051.9 442.805 5028.67 435.792 5008.94 435.792C4990.09 435.792 4975.63 443.243 4975.63 455.955C4975.63 470.42 4987.46 474.803 5022.09 484.885C5060.23 495.405 5101.43 508.555 5101.43 555.895C5101.43 599.29 5065.49 627.343 5012.45 627.343Z" fill="#FAF7F2"/>
<path d="M1434.09 1023.48H1392.07L1344.14 955.133H1304.79V1023.48H1267.8V820.215H1356.27C1399.76 820.215 1432.31 848.027 1432.31 887.674C1432.31 918.445 1412.49 942.115 1383.19 951.287L1434.09 1023.48ZM1304.79 854.24V921.108H1352.13C1377.28 921.108 1394.73 908.385 1394.73 887.674C1394.73 866.963 1377.28 854.24 1352.13 854.24H1304.79ZM1610.11 995.077C1624.32 995.077 1641.18 988.567 1649.76 979.691L1672.54 1003.36C1659.23 1017.56 1632.6 1027.03 1610.41 1027.03C1566.62 1027.03 1530.52 993.597 1530.52 946.553C1530.52 900.693 1564.85 866.963 1608.34 866.963C1655.68 866.963 1683.2 902.764 1683.2 959.276H1567.8C1572.24 980.283 1588.22 995.077 1610.11 995.077ZM1609.82 898.917C1589.7 898.917 1573.43 911.64 1568.1 931.759H1648.58C1644.44 912.528 1631.42 898.917 1609.82 898.917ZM1839.93 1023.48L1774.25 870.513H1812.42L1856.8 981.762L1900.29 870.513H1938.76L1873.96 1023.48H1839.93ZM2099.59 995.077C2113.79 995.077 2130.66 988.567 2139.24 979.691L2162.02 1003.36C2148.71 1017.56 2122.08 1027.03 2099.89 1027.03C2056.1 1027.03 2020 993.597 2020 946.553C2020 900.693 2054.32 866.963 2097.82 866.963C2145.16 866.963 2172.67 902.764 2172.67 959.276H2057.28C2061.72 980.283 2077.7 995.077 2099.59 995.077ZM2099.3 898.917C2079.18 898.917 2062.9 911.64 2057.58 931.759H2138.06C2133.91 912.528 2120.9 898.917 2099.3 898.917ZM2344.8 866.963C2385.33 866.963 2410.48 892.704 2410.48 931.464V1023.48H2375.27V1005.14C2364.03 1019.34 2344.8 1027.03 2327.05 1027.03C2294.5 1027.03 2269.94 1007.8 2269.94 978.212C2269.94 948.032 2298.05 927.321 2332.37 927.321C2346.28 927.321 2361.37 930.28 2375.27 935.606V931.464C2375.27 913.711 2365.51 896.55 2337.7 896.55C2323.2 896.55 2309.29 901.58 2296.28 908.089L2283.85 882.94C2305.45 872.289 2325.57 866.963 2344.8 866.963ZM2335.03 1000.7C2352.49 1000.7 2371.13 991.822 2375.27 975.549V958.388C2364.03 954.542 2351.31 952.471 2337.7 952.471C2319.65 952.471 2305.15 962.53 2305.15 977.028C2305.15 991.526 2317.87 1000.7 2335.03 1000.7ZM2523.83 1023.48V816.664H2559.93V1023.48H2523.83ZM2908.48 990.638L2918.84 1014.9C2910.26 1022.3 2897.83 1027.03 2886.29 1027.03C2860.84 1027.03 2843.09 1008.69 2843.09 982.946V900.397H2820.9V870.513H2843.09V828.499H2878.3V870.513H2912.92V900.397H2878.3V978.508C2878.3 988.863 2884.81 996.26 2893.39 996.26C2899.6 996.26 2905.23 993.893 2908.48 990.638ZM3104.56 866.963C3137.99 866.963 3161.36 891.52 3161.36 926.138V1023.48H3126.45V933.239C3126.45 912.528 3113.14 897.734 3094.2 897.734C3073.78 897.734 3056.92 912.528 3056.92 930.872V1023.48H3020.82V816.664H3056.92V891.52C3066.09 876.727 3084.14 866.963 3104.56 866.963ZM3346.12 995.077C3360.32 995.077 3377.19 988.567 3385.77 979.691L3408.55 1003.36C3395.24 1017.56 3368.61 1027.03 3346.42 1027.03C3302.63 1027.03 3266.53 993.597 3266.53 946.553C3266.53 900.693 3300.85 866.963 3344.35 866.963C3391.69 866.963 3419.2 902.764 3419.2 959.276H3303.81C3308.25 980.283 3324.23 995.077 3346.12 995.077ZM3345.82 898.917C3325.71 898.917 3309.43 911.64 3304.11 931.759H3384.58C3380.44 912.528 3367.42 898.917 3345.82 898.917ZM3774.24 1027.03C3721.87 1027.03 3684.59 989.751 3684.59 936.789V820.215H3721.57V935.606C3721.57 969.335 3743.47 993.597 3774.24 993.597C3805.3 993.597 3827.2 969.335 3827.2 935.606V820.215H3863.89V936.789C3863.89 989.751 3826.9 1027.03 3774.24 1027.03ZM4063 866.963C4096.43 866.963 4119.8 891.52 4119.8 926.138V1023.48H4084.89V933.239C4084.89 912.528 4071.58 897.734 4052.64 897.734C4033.71 897.734 4018.02 910.456 4015.66 926.73V1023.48H3979.56V870.513H4015.66V890.929C4025.12 876.727 4042.88 866.963 4063 866.963ZM4289.77 1027.03C4266.39 1027.03 4241.24 1018.75 4222.9 1003.95L4239.17 978.803C4253.97 989.455 4271.13 996.556 4290.36 996.556C4304.86 996.556 4314.92 990.343 4314.92 980.875C4314.92 969.04 4301.6 965.193 4284.15 960.459C4251.01 951.879 4230 942.411 4229.71 915.19C4229.71 886.491 4253.38 866.963 4287.4 866.963C4308.41 866.963 4329.42 874.36 4345.98 885.307L4330.89 911.64C4316.4 902.468 4300.72 897.734 4287.4 897.734C4274.68 897.734 4264.91 902.764 4264.91 911.344C4264.91 921.108 4272.9 924.067 4296.28 930.872C4322.02 937.973 4349.83 946.849 4349.83 978.803C4349.83 1008.09 4325.57 1027.03 4289.77 1027.03ZM4526.76 995.077C4540.97 995.077 4557.83 988.567 4566.41 979.691L4589.19 1003.36C4575.88 1017.56 4549.25 1027.03 4527.06 1027.03C4483.27 1027.03 4447.17 993.597 4447.17 946.553C4447.17 900.693 4481.49 866.963 4524.99 866.963C4572.33 866.963 4599.84 902.764 4599.84 959.276H4484.45C4488.89 980.283 4504.87 995.077 4526.76 995.077ZM4526.47 898.917C4506.35 898.917 4490.08 911.64 4484.75 931.759H4565.23C4561.09 912.528 4548.07 898.917 4526.47 898.917ZM4776.7 995.077C4790.91 995.077 4807.77 988.567 4816.35 979.691L4839.13 1003.36C4825.82 1017.56 4799.19 1027.03 4777 1027.03C4733.21 1027.03 4697.11 993.597 4697.11 946.553C4697.11 900.693 4731.43 866.963 4774.93 866.963C4822.27 866.963 4849.78 902.764 4849.78 959.276H4734.39C4738.83 980.283 4754.81 995.077 4776.7 995.077ZM4776.41 898.917C4756.29 898.917 4740.02 911.64 4734.69 931.759H4815.17C4811.02 912.528 4798.01 898.917 4776.41 898.917ZM5038.77 866.963C5072.21 866.963 5095.58 891.52 5095.58 926.138V1023.48H5060.67V933.239C5060.67 912.528 5047.35 897.734 5028.42 897.734C5009.48 897.734 4993.8 910.456 4991.43 926.73V1023.48H4955.34V870.513H4991.43V890.929C5000.9 876.727 5018.65 866.963 5038.77 866.963Z" fill="#C89545"/>
</svg>
